<mxfile host="app.diagrams.net" modified="2024-02-22T23:25:52.907Z" agent="Mozilla/5.0 (Windows NT 10.0; Win64; x64) AppleWebKit/537.36 (KHTML, like Gecko) Chrome/121.0.0.0 Safari/537.36" etag="kZ6a2bgbx_rCZAimqoe0" version="23.1.6" type="device">
  <diagram name="Page-1" id="GSxw2mzzj_lZXWtyE89i">
    <mxGraphModel dx="505" dy="548" grid="1" gridSize="10" guides="1" tooltips="1" connect="1" arrows="1" fold="1" page="1" pageScale="1" pageWidth="850" pageHeight="1100" math="0" shadow="0">
      <root>
        <mxCell id="0" />
        <mxCell id="1" parent="0" />
        <mxCell id="GYn86Yw5yh6Micfr2NWZ-5" value="" style="edgeStyle=orthogonalEdgeStyle;rounded=0;orthogonalLoop=1;jettySize=auto;html=1;" parent="1" source="GYn86Yw5yh6Micfr2NWZ-2" target="GYn86Yw5yh6Micfr2NWZ-4" edge="1">
          <mxGeometry relative="1" as="geometry" />
        </mxCell>
        <mxCell id="GYn86Yw5yh6Micfr2NWZ-2" value="Customer creates account" style="rounded=1;whiteSpace=wrap;html=1;absoluteArcSize=1;arcSize=14;strokeWidth=2;" parent="1" vertex="1">
          <mxGeometry x="310" y="150" width="130" height="50" as="geometry" />
        </mxCell>
        <mxCell id="GYn86Yw5yh6Micfr2NWZ-60" value="" style="edgeStyle=orthogonalEdgeStyle;rounded=0;orthogonalLoop=1;jettySize=auto;html=1;" parent="1" source="GYn86Yw5yh6Micfr2NWZ-4" target="GYn86Yw5yh6Micfr2NWZ-6" edge="1">
          <mxGeometry relative="1" as="geometry" />
        </mxCell>
        <mxCell id="GYn86Yw5yh6Micfr2NWZ-4" value="Create and store Order" style="rounded=1;whiteSpace=wrap;html=1;absoluteArcSize=1;arcSize=14;strokeWidth=2;" parent="1" vertex="1">
          <mxGeometry x="310" y="220" width="130" height="50" as="geometry" />
        </mxCell>
        <mxCell id="GYn86Yw5yh6Micfr2NWZ-8" value="" style="edgeStyle=orthogonalEdgeStyle;rounded=0;orthogonalLoop=1;jettySize=auto;html=1;" parent="1" source="GYn86Yw5yh6Micfr2NWZ-6" target="GYn86Yw5yh6Micfr2NWZ-7" edge="1">
          <mxGeometry relative="1" as="geometry" />
        </mxCell>
        <mxCell id="GYn86Yw5yh6Micfr2NWZ-6" value="Ask customer how many patrons and store in Order." style="shape=parallelogram;html=1;strokeWidth=2;perimeter=parallelogramPerimeter;whiteSpace=wrap;rounded=1;arcSize=12;size=0.23;spacingLeft=30;spacingRight=35;" parent="1" vertex="1">
          <mxGeometry x="270" y="290" width="210" height="60" as="geometry" />
        </mxCell>
        <mxCell id="GYn86Yw5yh6Micfr2NWZ-13" value="" style="edgeStyle=orthogonalEdgeStyle;rounded=0;orthogonalLoop=1;jettySize=auto;html=1;" parent="1" source="GYn86Yw5yh6Micfr2NWZ-7" target="GYn86Yw5yh6Micfr2NWZ-12" edge="1">
          <mxGeometry relative="1" as="geometry" />
        </mxCell>
        <mxCell id="GYn86Yw5yh6Micfr2NWZ-7" value="1" style="ellipse;whiteSpace=wrap;html=1;strokeWidth=2;rounded=1;arcSize=12;spacingLeft=0;spacingRight=0;" parent="1" vertex="1">
          <mxGeometry x="355" y="370" width="40" height="40" as="geometry" />
        </mxCell>
        <mxCell id="GYn86Yw5yh6Micfr2NWZ-15" value="" style="edgeStyle=orthogonalEdgeStyle;rounded=0;orthogonalLoop=1;jettySize=auto;html=1;" parent="1" source="GYn86Yw5yh6Micfr2NWZ-12" target="GYn86Yw5yh6Micfr2NWZ-14" edge="1">
          <mxGeometry relative="1" as="geometry" />
        </mxCell>
        <mxCell id="GYn86Yw5yh6Micfr2NWZ-12" value="2" style="ellipse;whiteSpace=wrap;html=1;strokeWidth=2;rounded=1;arcSize=12;spacingLeft=0;spacingRight=0;" parent="1" vertex="1">
          <mxGeometry x="355" y="430" width="40" height="40" as="geometry" />
        </mxCell>
        <mxCell id="GYn86Yw5yh6Micfr2NWZ-17" value="" style="edgeStyle=orthogonalEdgeStyle;rounded=0;orthogonalLoop=1;jettySize=auto;html=1;" parent="1" source="GYn86Yw5yh6Micfr2NWZ-14" target="GYn86Yw5yh6Micfr2NWZ-16" edge="1">
          <mxGeometry relative="1" as="geometry" />
        </mxCell>
        <mxCell id="GYn86Yw5yh6Micfr2NWZ-14" value="3" style="ellipse;whiteSpace=wrap;html=1;strokeWidth=2;rounded=1;arcSize=12;spacingLeft=0;spacingRight=0;" parent="1" vertex="1">
          <mxGeometry x="355" y="490" width="40" height="40" as="geometry" />
        </mxCell>
        <mxCell id="GYn86Yw5yh6Micfr2NWZ-19" value="" style="edgeStyle=orthogonalEdgeStyle;rounded=0;orthogonalLoop=1;jettySize=auto;html=1;" parent="1" source="GYn86Yw5yh6Micfr2NWZ-16" target="GYn86Yw5yh6Micfr2NWZ-18" edge="1">
          <mxGeometry relative="1" as="geometry" />
        </mxCell>
        <mxCell id="GYn86Yw5yh6Micfr2NWZ-16" value="4" style="ellipse;whiteSpace=wrap;html=1;strokeWidth=2;rounded=1;arcSize=12;spacingLeft=0;spacingRight=0;" parent="1" vertex="1">
          <mxGeometry x="355" y="550" width="40" height="40" as="geometry" />
        </mxCell>
        <mxCell id="GYn86Yw5yh6Micfr2NWZ-21" value="" style="edgeStyle=orthogonalEdgeStyle;rounded=0;orthogonalLoop=1;jettySize=auto;html=1;" parent="1" source="GYn86Yw5yh6Micfr2NWZ-18" target="GYn86Yw5yh6Micfr2NWZ-20" edge="1">
          <mxGeometry relative="1" as="geometry" />
        </mxCell>
        <mxCell id="GYn86Yw5yh6Micfr2NWZ-18" value="Process $50 deposit from customer credit card&amp;nbsp;" style="whiteSpace=wrap;html=1;strokeWidth=2;rounded=1;arcSize=12;spacingLeft=0;spacingRight=0;" parent="1" vertex="1">
          <mxGeometry x="310" y="610" width="130" height="60" as="geometry" />
        </mxCell>
        <mxCell id="GYn86Yw5yh6Micfr2NWZ-23" value="" style="edgeStyle=orthogonalEdgeStyle;rounded=0;orthogonalLoop=1;jettySize=auto;html=1;" parent="1" source="GYn86Yw5yh6Micfr2NWZ-20" target="GYn86Yw5yh6Micfr2NWZ-22" edge="1">
          <mxGeometry relative="1" as="geometry" />
        </mxCell>
        <mxCell id="GYn86Yw5yh6Micfr2NWZ-20" value="Create QR Code and store in Order" style="whiteSpace=wrap;html=1;strokeWidth=2;rounded=1;arcSize=12;spacingLeft=0;spacingRight=0;" parent="1" vertex="1">
          <mxGeometry x="310" y="690" width="130" height="60" as="geometry" />
        </mxCell>
        <mxCell id="GYn86Yw5yh6Micfr2NWZ-25" value="" style="edgeStyle=orthogonalEdgeStyle;rounded=0;orthogonalLoop=1;jettySize=auto;html=1;" parent="1" source="GYn86Yw5yh6Micfr2NWZ-22" target="GYn86Yw5yh6Micfr2NWZ-24" edge="1">
          <mxGeometry relative="1" as="geometry" />
        </mxCell>
        <mxCell id="GYn86Yw5yh6Micfr2NWZ-22" value="5" style="ellipse;whiteSpace=wrap;html=1;strokeWidth=2;rounded=1;arcSize=12;spacingLeft=0;spacingRight=0;" parent="1" vertex="1">
          <mxGeometry x="355" y="770" width="40" height="40" as="geometry" />
        </mxCell>
        <mxCell id="GYn86Yw5yh6Micfr2NWZ-27" value="" style="edgeStyle=orthogonalEdgeStyle;rounded=0;orthogonalLoop=1;jettySize=auto;html=1;" parent="1" source="GYn86Yw5yh6Micfr2NWZ-24" target="GYn86Yw5yh6Micfr2NWZ-26" edge="1">
          <mxGeometry relative="1" as="geometry" />
        </mxCell>
        <mxCell id="GYn86Yw5yh6Micfr2NWZ-28" value="Yes" style="edgeLabel;html=1;align=center;verticalAlign=middle;resizable=0;points=[];" parent="GYn86Yw5yh6Micfr2NWZ-27" vertex="1" connectable="0">
          <mxGeometry x="-0.2595" y="1" relative="1" as="geometry">
            <mxPoint x="-1" y="-9" as="offset" />
          </mxGeometry>
        </mxCell>
        <mxCell id="GYn86Yw5yh6Micfr2NWZ-33" style="edgeStyle=orthogonalEdgeStyle;rounded=0;orthogonalLoop=1;jettySize=auto;html=1;entryX=0.5;entryY=0;entryDx=0;entryDy=0;" parent="1" source="GYn86Yw5yh6Micfr2NWZ-24" target="GYn86Yw5yh6Micfr2NWZ-29" edge="1">
          <mxGeometry relative="1" as="geometry">
            <Array as="points">
              <mxPoint x="490" y="890" />
              <mxPoint x="490" y="1060" />
              <mxPoint x="375" y="1060" />
            </Array>
          </mxGeometry>
        </mxCell>
        <mxCell id="GYn86Yw5yh6Micfr2NWZ-34" value="No" style="edgeLabel;html=1;align=center;verticalAlign=middle;resizable=0;points=[];" parent="GYn86Yw5yh6Micfr2NWZ-33" vertex="1" connectable="0">
          <mxGeometry x="-0.8316" y="1" relative="1" as="geometry">
            <mxPoint x="-7" y="1" as="offset" />
          </mxGeometry>
        </mxCell>
        <mxCell id="GYn86Yw5yh6Micfr2NWZ-24" value="Does customer want to leave a valet tip?" style="strokeWidth=2;html=1;shape=mxgraph.flowchart.decision;whiteSpace=wrap;spacingLeft=15;spacingRight=15;" parent="1" vertex="1">
          <mxGeometry x="315" y="830" width="120" height="120" as="geometry" />
        </mxCell>
        <mxCell id="GYn86Yw5yh6Micfr2NWZ-30" value="" style="edgeStyle=orthogonalEdgeStyle;rounded=0;orthogonalLoop=1;jettySize=auto;html=1;" parent="1" source="GYn86Yw5yh6Micfr2NWZ-26" target="GYn86Yw5yh6Micfr2NWZ-29" edge="1">
          <mxGeometry relative="1" as="geometry" />
        </mxCell>
        <mxCell id="GYn86Yw5yh6Micfr2NWZ-26" value="add tip to Order.valetCosts" style="whiteSpace=wrap;html=1;strokeWidth=2;spacingLeft=15;spacingRight=15;" parent="1" vertex="1">
          <mxGeometry x="315" y="980" width="120" height="60" as="geometry" />
        </mxCell>
        <mxCell id="-Rx2pQcr3lDNFqoRfUV_-1" value="" style="edgeStyle=orthogonalEdgeStyle;rounded=0;orthogonalLoop=1;jettySize=auto;html=1;" edge="1" parent="1" source="GYn86Yw5yh6Micfr2NWZ-29" target="GYn86Yw5yh6Micfr2NWZ-50">
          <mxGeometry relative="1" as="geometry" />
        </mxCell>
        <mxCell id="GYn86Yw5yh6Micfr2NWZ-29" value="6" style="ellipse;whiteSpace=wrap;html=1;strokeWidth=2;rounded=1;arcSize=12;spacingLeft=0;spacingRight=0;" parent="1" vertex="1">
          <mxGeometry x="355" y="1080" width="40" height="40" as="geometry" />
        </mxCell>
        <mxCell id="GYn86Yw5yh6Micfr2NWZ-49" value="" style="edgeStyle=orthogonalEdgeStyle;rounded=0;orthogonalLoop=1;jettySize=auto;html=1;" parent="1" source="GYn86Yw5yh6Micfr2NWZ-35" target="GYn86Yw5yh6Micfr2NWZ-48" edge="1">
          <mxGeometry relative="1" as="geometry" />
        </mxCell>
        <mxCell id="GYn86Yw5yh6Micfr2NWZ-53" value="Yes" style="edgeLabel;html=1;align=center;verticalAlign=middle;resizable=0;points=[];" parent="GYn86Yw5yh6Micfr2NWZ-49" vertex="1" connectable="0">
          <mxGeometry x="-0.15" y="3" relative="1" as="geometry">
            <mxPoint x="3" y="-9" as="offset" />
          </mxGeometry>
        </mxCell>
        <mxCell id="GYn86Yw5yh6Micfr2NWZ-54" style="edgeStyle=orthogonalEdgeStyle;rounded=0;orthogonalLoop=1;jettySize=auto;html=1;entryX=1;entryY=0.5;entryDx=0;entryDy=0;" parent="1" source="GYn86Yw5yh6Micfr2NWZ-35" target="GYn86Yw5yh6Micfr2NWZ-50" edge="1">
          <mxGeometry relative="1" as="geometry">
            <Array as="points">
              <mxPoint x="510" y="1360" />
              <mxPoint x="510" y="1170" />
            </Array>
          </mxGeometry>
        </mxCell>
        <mxCell id="GYn86Yw5yh6Micfr2NWZ-55" value="No" style="edgeLabel;html=1;align=center;verticalAlign=middle;resizable=0;points=[];" parent="GYn86Yw5yh6Micfr2NWZ-54" vertex="1" connectable="0">
          <mxGeometry x="-0.8667" y="1" relative="1" as="geometry">
            <mxPoint as="offset" />
          </mxGeometry>
        </mxCell>
        <mxCell id="GYn86Yw5yh6Micfr2NWZ-35" value="Did customer make a payment in full?" style="rhombus;whiteSpace=wrap;html=1;strokeWidth=2;rounded=1;arcSize=12;spacingLeft=20;spacingRight=20;spacingTop=9;" parent="1" vertex="1">
          <mxGeometry x="315" y="1300" width="120" height="120" as="geometry" />
        </mxCell>
        <mxCell id="GYn86Yw5yh6Micfr2NWZ-43" value="" style="edgeStyle=orthogonalEdgeStyle;rounded=0;orthogonalLoop=1;jettySize=auto;html=1;" parent="1" source="GYn86Yw5yh6Micfr2NWZ-41" target="GYn86Yw5yh6Micfr2NWZ-35" edge="1">
          <mxGeometry relative="1" as="geometry" />
        </mxCell>
        <mxCell id="GYn86Yw5yh6Micfr2NWZ-41" value="scan the customer&#39;s mobile QR code to confirm payment" style="whiteSpace=wrap;html=1;strokeWidth=2;spacingLeft=15;spacingRight=15;" parent="1" vertex="1">
          <mxGeometry x="300" y="1220" width="150" height="60" as="geometry" />
        </mxCell>
        <mxCell id="GYn86Yw5yh6Micfr2NWZ-57" value="" style="edgeStyle=orthogonalEdgeStyle;rounded=0;orthogonalLoop=1;jettySize=auto;html=1;" parent="1" source="GYn86Yw5yh6Micfr2NWZ-48" target="GYn86Yw5yh6Micfr2NWZ-56" edge="1">
          <mxGeometry relative="1" as="geometry" />
        </mxCell>
        <mxCell id="GYn86Yw5yh6Micfr2NWZ-48" value="permit the customer to leave." style="whiteSpace=wrap;html=1;strokeWidth=2;rounded=1;arcSize=12;spacingLeft=0;spacingRight=0;spacingTop=0;" parent="1" vertex="1">
          <mxGeometry x="315" y="1450" width="120" height="60" as="geometry" />
        </mxCell>
        <mxCell id="GYn86Yw5yh6Micfr2NWZ-52" value="" style="edgeStyle=orthogonalEdgeStyle;rounded=0;orthogonalLoop=1;jettySize=auto;html=1;" parent="1" source="GYn86Yw5yh6Micfr2NWZ-50" target="GYn86Yw5yh6Micfr2NWZ-41" edge="1">
          <mxGeometry relative="1" as="geometry" />
        </mxCell>
        <mxCell id="GYn86Yw5yh6Micfr2NWZ-50" value="Wait for customer to make payment" style="whiteSpace=wrap;html=1;strokeWidth=2;spacingLeft=15;spacingRight=15;" parent="1" vertex="1">
          <mxGeometry x="300" y="1140" width="150" height="60" as="geometry" />
        </mxCell>
        <mxCell id="GYn86Yw5yh6Micfr2NWZ-56" value="END" style="strokeWidth=2;html=1;shape=mxgraph.flowchart.terminator;whiteSpace=wrap;" parent="1" vertex="1">
          <mxGeometry x="325" y="1530" width="100" height="40" as="geometry" />
        </mxCell>
        <mxCell id="-Rx2pQcr3lDNFqoRfUV_-3" value="" style="edgeStyle=orthogonalEdgeStyle;rounded=0;orthogonalLoop=1;jettySize=auto;html=1;entryX=0.5;entryY=0;entryDx=0;entryDy=0;" edge="1" parent="1" source="GYn86Yw5yh6Micfr2NWZ-58" target="GYn86Yw5yh6Micfr2NWZ-2">
          <mxGeometry relative="1" as="geometry" />
        </mxCell>
        <mxCell id="GYn86Yw5yh6Micfr2NWZ-58" value="START" style="strokeWidth=2;html=1;shape=mxgraph.flowchart.terminator;whiteSpace=wrap;" parent="1" vertex="1">
          <mxGeometry x="325" y="90" width="100" height="40" as="geometry" />
        </mxCell>
      </root>
    </mxGraphModel>
  </diagram>
</mxfile>
